<svg xmlns="http://www.w3.org/2000/svg" viewBox="0 0 60 40"><path fill="#163777" d="M0 0h60v40H0z"/><defs><clipPath id="c"><path d="M0 0h30v20H0z"/></clipPath><path id="star" fill="#fff" d="m0-3.3.8 2.1 2.1-.9-1.1 2 2 1.1-2.3.1.3 2.3L0 2.4l-1.6 1.6.3-2.3-2.3-.1 2-1.1-1.1-2 2.1.9Z"/></defs><g clip-path="url(#c)"><path stroke="#fff" stroke-width="5" d="m0 0 30 20M30 0 0 20"/><path stroke="#d82d43" stroke-width="1.8" d="m0 0 30 20M30 0 0 20"/><path stroke="#fff" stroke-width="7" d="M15 0v20M0 10h30"/><path stroke="#d82d43" stroke-width="3.5" d="M15 0v20M0 10h30"/></g><use href="#star" x="15" y="30"/><use href="#star" x="45" y="8"/><use href="#star" x="37" y="20"/><use href="#star" x="53" y="17"/><use href="#star" x="45" y="33"/><path fill="#fff" d="m49 24 .5 1.4h1.5l-1.2.9.4 1.4-1.2-.9-1.2.9.4-1.4-1.2-.9h1.5Z"/></svg>
